name C:\Users\u0101727\Documents\MyRepositories\upper-imu-dc\Results\main_tracking\Case_13\kinematics.mot
datacolumns 10
datarows 52
range 1.50000000 2.01000000
endheader 
time	clav_prot	clav_elev	scapula_abduction	scapula_elevation	scapula_upward_rot	scapula_winging	plane_elv	shoulder_elv	axial_rot	
          1.50000000	        -22.80194248	          1.34750222	         -0.15474086	         -4.42682521	         34.13293075	         -1.40673841	         67.98473768	         55.90169083	        -23.32900071	
          1.51000000	        -22.60565058	          1.53603382	          0.20189837	         -4.28228033	         34.17445194	         -1.47317163	         68.12787714	         56.55264082	        -22.61282668	
          1.52000000	        -22.60703964	          1.78996978	          0.17342337	         -4.10879024	         34.23549055	         -1.55489037	         68.26723625	         57.20013542	        -21.96446702	
          1.53000000	        -22.58384845	          2.03270495	          0.18393536	         -3.94059457	         34.28754641	         -1.63046584	         68.39568598	         57.85612166	        -21.41033182	
          1.54000000	        -22.55712798	          2.26658151	          0.19179538	         -3.77634809	         34.32547569	         -1.69912499	         68.51191116	         58.52651683	        -20.94416427	
          1.55000000	        -22.53351127	          2.49421869	          0.18884821	         -3.61545597	         34.35490200	         -1.76272792	         68.61374072	         59.20710355	        -20.57277841	
          1.56000000	        -22.51404275	          2.71951417	          0.17429690	         -3.45563092	         34.37870970	         -1.82291696	         68.70011835	         59.89611233	        -20.29599135	
          1.57000000	        -22.49924015	          2.94210644	          0.15140038	         -3.29803800	         34.40221610	         -1.88079237	         68.76928710	         60.58823757	        -20.10965833	
          1.58000000	        -22.48579431	          3.16001991	          0.13177682	         -3.14501692	         34.43210235	         -1.93749483	         68.82004734	         61.27620858	        -20.00242344	
          1.59000000	        -22.49855226	          3.37304160	          0.07753857	         -2.99945445	         34.47624846	         -1.99438940	         68.85212158	         61.95123735	        -19.95769071	
          1.60000000	        -22.46999955	          3.57715325	          0.11140445	         -2.86070482	         34.53669578	         -2.05238935	         68.86805253	         62.61075309	        -19.95455840	
          1.61000000	        -22.45114537	          3.77869143	          0.14478303	         -2.72792503	         34.61828529	         -2.11317791	         68.87097115	         63.24982881	        -19.97501802	
          1.62000000	        -22.39877368	          3.97338633	          0.26167892	         -2.60291004	         34.72834911	         -2.17832790	         68.86261626	         63.86056810	        -20.00398150	
          1.63000000	        -22.48333322	          4.17345650	          0.16334650	         -2.48836958	         34.87758079	         -2.25004917	         68.84346403	         64.43191609	        -20.03483879	
          1.64000000	        -22.55887261	          4.36610021	          0.11710334	         -2.38582343	         35.07044632	         -2.32945487	         68.81400990	         64.95898091	        -20.07039828	
          1.65000000	        -22.55871910	          4.54697653	          0.24418308	         -2.29454899	         35.30779107	         -2.41644111	         68.77516167	         65.44166090	        -20.11977673	
          1.66000000	        -22.58777693	          4.72544705	          0.35158253	         -2.21298272	         35.58518195	         -2.51065126	         68.72936135	         65.88512173	        -20.19636056	
          1.67000000	        -22.63696148	          4.90278075	          0.45010299	         -2.13846881	         35.89603026	         -2.61098378	         68.68033069	         66.29707152	        -20.31160196	
          1.68000000	        -22.70139452	          5.07972677	          0.54431601	         -2.06921226	         36.23516572	         -2.71648524	         68.63249600	         66.68351642	        -20.46495490	
          1.69000000	        -22.77979078	          5.25713869	          0.63390654	         -2.00388611	         36.59942670	         -2.82662181	         68.59083212	         67.04826419	        -20.64378610	
          1.70000000	        -22.87261519	          5.43526799	          0.71689914	         -1.94196064	         36.98727645	         -2.94110361	         68.55992363	         67.39322537	        -20.82814188	
          1.71000000	        -22.98078782	          5.61323703	          0.79114530	         -1.88379622	         37.39752394	         -3.05954248	         68.54304633	         67.71969653	        -20.99863694	
          1.72000000	        -23.10498713	          5.78913974	          0.85487518	         -1.83039980	         37.82848720	         -3.18130977	         68.54166081	         68.02926469	        -21.14159298	
          1.73000000	        -23.24535597	          5.96065690	          0.90688906	         -1.78294874	         38.27783620	         -3.30561565	         68.55549731	         68.32403533	        -21.24960143	
          1.74000000	        -23.40151181	          6.12598888	          0.94661831	         -1.74220660	         38.74309111	         -3.43176282	         68.58310575	         68.60619384	        -21.31773894	
          1.75000000	        -23.57271887	          6.28475416	          0.97412403	         -1.70800782	         39.22238499	         -3.55943226	         68.62253938	         68.87729786	        -21.33817831	
          1.76000000	        -23.75803537	          6.43833229	          0.99003743	         -1.67907647	         39.71485771	         -3.68879136	         68.67176086	         69.13791761	        -21.29745363	
          1.77000000	        -23.95631541	          6.58938016	          0.99544040	         -1.65331601	         40.22030465	         -3.82031640	         68.72853680	         69.38798742	        -21.17898422	
          1.78000000	        -24.16608929	          6.74079589	          0.99171162	         -1.62841473	         40.73829104	         -3.95442900	         68.78996673	         69.62767225	        -20.96955646	
          1.79000000	        -24.38545289	          6.89472301	          0.98037622	         -1.60243984	         41.26731890	         -4.09116502	         68.85205850	         69.85819221	        -20.66571924	
          1.80000000	        -24.61208783	          7.05203201	          0.96297377	         -1.57417802	         41.80451116	         -4.23003808	         68.90969661	         70.08215855	        -20.27664688	
          1.81000000	        -24.84345076	          7.21237028	          0.94093103	         -1.54316438	         42.34590555	         -4.37012541	         68.95708871	         70.30332364	        -19.82257230	
          1.82000000	        -25.07707401	          7.37460766	          0.91542488	         -1.50948145	         42.88713396	         -4.51029738	         68.98851912	         70.52594883	        -19.33025912	
          1.83000000	        -25.31084937	          7.53735426	          0.88725877	         -1.47349568	         43.42409837	         -4.64945517	         68.99907515	         70.75415042	        -18.82820471	
          1.84000000	        -25.54317521	          7.69929168	          0.85681341	         -1.43567305	         43.95335477	         -4.78667311	         68.98506414	         70.99149250	        -18.34352493	
          1.85000000	        -25.77295818	          7.85933560	          0.82410397	         -1.39646959	         44.47223856	         -4.92125315	         68.94411419	         71.24079723	        -17.90022079	
          1.86000000	        -25.99956570	          8.01680319	          0.78889132	         -1.35620940	         44.97895152	         -5.05276370	         68.87516552	         71.50397465	        -17.51734323	
          1.87000000	        -26.22281226	          8.17161582	          0.75075665	         -1.31494402	         45.47269273	         -5.18108882	         68.77849445	         71.78181204	        -17.20672142	
          1.88000000	        -26.44296767	          8.32438300	          0.70910607	         -1.27238709	         45.95370467	         -5.30644400	         68.65571236	         72.07386953	        -16.97154835	
          1.89000000	        -26.66071009	          8.47621808	          0.66316083	         -1.22800900	         46.42307602	         -5.42930622	         68.50958554	         72.37865101	        -16.80727118	
          1.90000000	        -26.87697129	          8.62831658	          0.61201726	         -1.18127005	         46.88230419	         -5.55026135	         68.34361183	         72.69404942	        -16.70481386	
          1.91000000	        -27.09270985	          8.78153963	          0.55479883	         -1.13184715	         47.33282174	         -5.66984160	         68.16148068	         73.01785704	        -16.65440743	
          1.92000000	        -27.30869224	          8.93623960	          0.49085346	         -1.07971330	         47.77569705	         -5.78842718	         67.96660498	         73.34811890	        -16.64812303	
          1.93000000	        -27.52530454	          9.09229628	          0.41996231	         -1.02509071	         48.21150260	         -5.90620474	         67.76176015	         73.68331527	        -16.68088292	
          1.94000000	        -27.74236404	          9.24914395	          0.34256687	         -0.96841332	         48.64020211	         -6.02312114	         67.54874742	         74.02250094	        -16.75095914	
          1.95000000	        -27.95896084	          9.40570997	          0.25997132	         -0.91035364	         49.06103575	         -6.13882343	         67.32813140	         74.36541801	        -16.86012928	
          1.96000000	        -28.17347022	          9.56045378	          0.17436178	         -0.85180771	         49.47258915	         -6.25266406	         67.09932266	         74.71241246	        -17.01211237	
          1.97000000	        -28.38386867	          9.71171134	          0.08847280	         -0.79371566	         49.87320932	         -6.36384994	         66.86123923	         75.06401623	        -17.20818211	
          1.98000000	        -28.58831555	          9.85826185	          0.00491077	         -0.73676175	         50.26166234	         -6.47170884	         66.61341962	         75.42031573	        -17.44124162	
          1.99000000	        -28.78577198	          9.99978759	         -0.07461745	         -0.68113958	         50.63770953	         -6.57594816	         66.35709610	         75.78043325	        -17.69165812	
          2.00000000	        -28.97637417	         10.13693627	         -0.14981763	         -0.62654345	         51.00230526	         -6.67677500	         66.09567518	         76.14240739	        -17.92782657	
          2.01000000	        -29.16139093	         10.27094875	         -0.22181513	         -0.57239707	         51.35733889	         -6.77482411	         65.83434559	         76.50352836	        -18.11203411	
